<svg version="1.1" id="Layer_1" xmlns="http://www.w3.org/2000/svg" xmlns:xlink="http://www.w3.org/1999/xlink" x="0px" y="0px" viewBox="0 0 24 24" enable-background="new 0 0 24 24" xml:space="preserve">
<g>
	<path fill="#560000" d="M12,18c-4.9692383,0-10,1.0302734-10,3s5.0307617,3,10,3s10-1.0302734,10-3S16.9692383,18,12,18z" id="id_220"></path>
	<path opacity="0.2" fill="#FFFFFF" d="M12,18.25c4.2751465,0,8.5739498,0.705719,9.8141842,2.1204529
		C20.9047604,18.7920227,16.437439,18,12,18s-8.9233885,0.8238525-9.8328123,2.4022827
		C3.4074218,18.9875488,7.7248535,18.25,12,18.25z" id="id_221"></path>
	<path fill="#be0000" d="M5,20.5L9,8l6.5-8L15,9.5l4,11c0,1.2207031-5,1.5-7,1.5S5,21.7207031,5,20.5z" id="id_222"></path>
	<path opacity="0.1" fill="#010101" d="M12,21.75c-1.9208984,0-6.5963135-0.2601318-6.9641724-1.3619995L5,20.5
		c0,1.2207031,5,1.5,7,1.5s7-0.2792969,7-1.5l-0.0379028-0.104187C18.5749512,21.4911499,13.9163818,21.75,12,21.75z" id="id_223"></path>
	<path opacity="0.1" fill="#010101" d="M12,23.75c-4.2751465,0-8.5739489-0.705719-9.8141832-2.1204529
		C3.0952406,23.2079773,7.562561,24,12,24s8.9233894-0.8238525,9.8328133-2.4022827
		C20.5925789,23.0124512,16.2751465,23.75,12,23.75z" id="id_224"></path>
	<polygon fill="#FDB816" points="5.7999878,18 18.0908813,18 17.7272949,17 6.1199951,17 	" id="id_225"></polygon>
	<path fill="#FDB816" d="M12.500001,18.5H11.499999C10.9477148,18.5,10.5,18.0522861,10.5,17.5000019v-0.0000038
		C10.5,16.9477139,10.9477148,16.5,11.499999,16.5h1.0000019C13.0522852,16.5,13.5,16.9477139,13.5,17.4999981v0.0000038
		C13.5,18.0522861,13.0522852,18.5,12.500001,18.5z" id="id_226"></path>
	<path opacity="0.2" fill="#FFFFFF" d="M9,8.25l6.4859009-7.982666L15.5,0L9,8L5,20.5C5,20.5482788,9,8.25,9,8.25z" id="id_227"></path>
	<path fill="#2e0302" d="M12.5,19h-1c-0.8271484,0-1.5-0.6728516-1.5-1.5s0.6728516-1.5,1.5-1.5h1
		c0.8271484,0,1.5,0.6728516,1.5,1.5S13.3271484,19,12.5,19z M11.5,17c-0.2758789,0-0.5,0.2241211-0.5,0.5s0.2241211,0.5,0.5,0.5h1
		c0.2758789,0,0.5-0.2241211,0.5-0.5S12.7758789,17,12.5,17H11.5z" id="id_228"></path>
	<linearGradient id="SVGID_1_" gradientUnits="userSpaceOnUse" x1="11.7789459" y1="17.2790985" x2="17.000412" y2="22.5005646">
		<stop offset="0" style="stop-color:#010101;stop-opacity:0.1" id="id_232"></stop>
		<stop offset="1" style="stop-color:#010101;stop-opacity:0" id="id_233"></stop>
	</linearGradient>
	<path fill="url(#SVGID_1_)" d="M13.5878296,16.4733276C13.8415527,16.7421265,14,17.1020508,14,17.5
		c0,0.8271484-0.6728516,1.5-1.5,1.5h-1c-0.3988037,0-0.7594604-0.1588745-1.0283813-0.4135742l3.3565674,3.3565674
		c1.5900879-0.0908813,3.4836426-0.3079834,4.4795532-0.7497559L13.5878296,16.4733276z" id="id_229"></path>
	<linearGradient id="SVGID_2_" gradientUnits="userSpaceOnUse" x1="8.8430328" y1="17.4008636" x2="17.4043732" y2="25.962204">
		<stop offset="0" style="stop-color:#010101;stop-opacity:0.1" id="id_234"></stop>
		<stop offset="1" style="stop-color:#010101;stop-opacity:0" id="id_235"></stop>
	</linearGradient>
	<path fill="url(#SVGID_2_)" d="M18.9620972,20.395813L19,20.5c0,1.2207031-5,1.5-7,1.5
		c-1.7163086,0-5.6330566-0.2076416-6.7122192-1.0374146l-0.0067749,0.0003052L8.0957642,23.77771
		C9.3374634,23.9237061,10.6693115,24,12,24c3.6109619,0,7.2443848-0.5466309,8.9664307-1.5998535L18.9620972,20.395813z" id="id_230"></path>
	<linearGradient id="SVGID_3_" gradientUnits="userSpaceOnUse" x1="6.9463601" y1="10.1387129" x2="23.5690861" y2="17.8900166">
		<stop offset="0" style="stop-color:#FFFFFF;stop-opacity:0.2" id="id_236"></stop>
		<stop offset="1" style="stop-color:#FFFFFF;stop-opacity:0" id="id_237"></stop>
	</linearGradient>
	<path fill="url(#SVGID_3_)" d="M18.3198853,18.6296997L15,9.5L15.5,0L9,8L5.5916138,18.651123C3.46698,19.15271,2,19.9386597,2,21
		c0,1.9697266,5.0307617,3,10,3s10-1.0302734,10-3C22,19.9237671,20.492981,19.130188,18.3198853,18.6296997z" id="id_231"></path>
</g>
<g>
</g>
<g>
</g>
<g>
</g>
<g>
</g>
<g>
</g>
<g>
</g>
<g>
</g>
<g>
</g>
<g>
</g>
<g>
</g>
<g>
</g>
<g>
</g>
<g>
</g>
<g>
</g>
<g>
</g>
</svg>